<svg xmlns="http://www.w3.org/2000/svg" viewBox="0 0 714.15 449.25"><defs><style>.cls-1{fill:#fff;}</style></defs><g id="Capa_2" data-name="Capa 2"><g id="identidad_visual"><path class="cls-1" d="M714.15,0c-8.48,248.38-174.57,456.26-450.87,449.07,38.06-84.84,93.28-151.49,155.89-211.59-84.88,29.76-141.62,95.88-187,181.68-1.27-21.71-4-43.45-3.58-65.12,2-115.5,46.12-189.26,142.12-229.19,48-20,98.57-32.08,148.13-47.11,34.18-10.36,69.46-16.92,102.71-30.13C653.93,34.77,684.33,15.63,714.15,0Z"/><path class="cls-1" d="M1.5,88.36c33.83,37.92,74.59,54.35,116.7,67.69,44.88,14.22,80.89,41.89,103.84,88.82,2.86,5.85,6.1,13.93,4.73,19.6-12.31,50.9-13.13,102.25-9.69,157.67L145.3,348.75c-4.17,5.5-4.4,5.66,9.79,31,6.52,11.62,14.15,22.43,22.3,35.21C87.72,393.39-13.56,245.21,1.5,88.36Z"/></g></g></svg>