<svg xmlns="http://www.w3.org/2000/svg" viewBox="0 0 451.23 450"><defs><style>.cls-1{fill:#fff;}.cls-2{fill:none;stroke:#fff;stroke-miterlimit:10;stroke-width:0px;}</style></defs><g id="Capa_2" data-name="Capa 2"><g id="Capa_1-2" data-name="Capa 1"><g id="Capa_2-2" data-name="Capa 2"><g id="identidad_visual" data-name="identidad visual"><path class="cls-1" d="M450,83.46C444.66,240,340,371,165.9,366.43c24-53.46,58.78-95.46,98.23-133.33-53.49,18.75-89.24,60.42-117.84,114.48-.8-13.68-2.52-27.38-2.25-41,1.26-72.78,29.06-119.26,89.55-144.42,30.25-12.6,62.11-20.21,93.34-29.69,21.54-6.52,43.77-10.66,64.72-19C412.05,105.37,431.21,93.31,450,83.46Z"/><path class="cls-1" d="M.94,139.14C22.26,163,48,173.38,74.48,181.79c28.28,9,51,26.4,65.43,56,1.8,3.68,3.85,8.77,3,12.35-7.75,32.07-8.27,64.43-6.1,99.35L91.56,303.21c-2.63,3.47-2.78,3.57,6.16,19.54,4.11,7.32,8.92,14.13,14.06,22.18C55.27,331.34-8.54,238,.94,139.14Z"/></g></g><path class="cls-2" d="M450,83.46c1.32-7.4,4.07-28.61-8.16-48.89C426.82,9.65,395.36-3.7,362.18.9"/><path class="cls-2" d="M0,450c17.62-10.19,80-27.62,57.33-29.92-94.17-9.6-31-33.37,108.57-53.65"/></g></g></svg>